# xmcd
#
# Track frame offsets:
#	150
#	13475
#	28537
#	42018
#	59475
#	80940
#	95990
#	110674
#	126859
#	141718
#
# Disc length: 2125 seconds
#
# Revision: 0
# Processed by: cddbd v1.5PL3 Copyright (c) Steve Scherf et al.
# Submitted via: dBpowerAMP V4.0
#
DISCID=9c084b0a
DTITLE=The Cooke Brothers - The Chains Fell Away
DYEAR=1900
DGENRE=
TTITLE0=The Chains Fell Away
TTITLE1=He Never Gave Up
TTITLE2=Mama's Up In Heaven
TTITLE3=Highway To Heaven
TTITLE4=Light At The End Of The Darkness
TTITLE5=I Want To Go Home
TTITLE6=Freedom Of An Eagle
TTITLE7=What Will It Be Like
TTITLE8=His Name Is Jesus
TTITLE9=He Whispers Sweet Peace To Me
EXTD=Gospel
EXTT0=
EXTT1=
EXTT2=
EXTT3=
EXTT4=
EXTT5=
EXTT6=
EXTT7=
EXTT8=
EXTT9=
PLAYORDER=
